<?xml version="1.0" standalone="no"?>
<!DOCTYPE svg PUBLIC "-//W3C//DTD SVG 20010904//EN"
 "http://www.w3.org/TR/2001/REC-SVG-20010904/DTD/svg10.dtd">
<svg version="1.0" xmlns="http://www.w3.org/2000/svg"
 width="422.000000pt" height="200.000000pt" viewBox="0 0 422.000000 200.000000"
 preserveAspectRatio="xMidYMid meet">

<g transform="translate(0.000000,200.000000) scale(0.100000,-0.100000)"
fill="#000000" stroke="none">
<path d="M899 1891 c-26 -26 -39 -61 -23 -61 4 0 28 16 54 35 l48 35 146 0
c91 0 146 4 146 10 0 6 -64 10 -171 10 l-171 0 -29 -29z"/>
<path d="M1577 1892 c-26 -27 -36 -62 -19 -62 5 0 17 9 28 21 39 43 66 49 213
49 132 0 143 -1 187 -26 49 -27 59 -27 50 3 -4 14 -16 19 -42 20 -20 1 -41 6
-47 12 -7 7 -70 11 -177 11 l-166 0 -27 -28z"/>
<path d="M2267 1909 c-22 -13 -50 -66 -38 -73 5 -4 22 4 38 17 52 44 67 47
213 47 133 0 143 -1 180 -25 45 -28 60 -31 60 -11 0 19 -20 32 -55 34 -16 1
-34 7 -39 12 -13 13 -336 13 -359 -1z"/>
<path d="M2936 1899 c-15 -12 -26 -30 -26 -45 l0 -24 51 35 51 35 147 -1 c125
0 150 -3 176 -19 17 -11 37 -24 45 -29 12 -7 16 -5 17 10 2 22 -11 32 -51 36
-17 2 -35 8 -40 13 -6 6 -81 10 -177 10 -153 0 -168 -2 -193 -21z"/>
<path d="M1280 1896 c0 -4 68 -46 76 -46 7 0 4 40 -3 41 -5 0 -23 2 -40 5 -18
2 -33 2 -33 0z"/>
<path d="M1228 1873 c7 -3 16 -2 19 1 4 3 -2 6 -13 5 -11 0 -14 -3 -6 -6z"/>
<path d="M1908 1873 c7 -3 16 -2 19 1 4 3 -2 6 -13 5 -11 0 -14 -3 -6 -6z"/>
<path d="M2588 1873 c7 -3 16 -2 19 1 4 3 -2 6 -13 5 -11 0 -14 -3 -6 -6z"/>
<path d="M3258 1873 c6 -2 18 -2 25 0 6 3 1 5 -13 5 -14 0 -19 -2 -12 -5z"/>
<path d="M290 1830 c0 -22 5 -40 10 -40 6 0 10 18 10 40 0 22 -4 40 -10 40 -5
0 -10 -18 -10 -40z"/>
<path d="M372 1850 c0 -14 2 -19 5 -12 2 6 2 18 0 25 -3 6 -5 1 -5 -13z"/>
<path d="M3730 1856 c0 -7 3 -28 6 -46 8 -39 24 -21 24 28 0 22 -5 32 -15 32
-8 0 -15 -6 -15 -14z"/>
<path d="M3810 1851 c0 -12 5 -21 10 -21 6 0 10 6 10 14 0 8 -4 18 -10 21 -5
3 -10 -3 -10 -14z"/>
<path d="M809 1839 c16 -6 28 -6 35 1 7 7 -1 10 -24 9 -33 0 -34 -1 -11 -10z"/>
<path d="M1478 1838 c17 -8 26 -8 34 0 9 9 4 12 -22 11 -33 0 -34 -1 -12 -11z"/>
<path d="M2153 1838 c21 -7 32 -7 40 1 8 8 0 11 -28 10 -40 -1 -40 -1 -12 -11z"/>
<path d="M2829 1841 c12 -8 51 -4 51 5 0 2 -15 4 -32 4 -23 0 -29 -3 -19 -9z"/>
<path d="M393 1789 l37 -31 0 -91 c0 -85 -2 -93 -27 -119 l-27 -28 28 0 c21 0
27 4 22 15 -3 8 1 20 8 28 16 16 30 155 21 199 -5 21 -16 34 -41 44 -53 22
-62 16 -21 -17z"/>
<path d="M3843 1787 l37 -36 0 -87 c0 -82 -2 -90 -27 -117 l-28 -29 24 4 c15
2 25 11 27 23 2 11 8 21 13 23 7 2 11 43 11 106 0 113 -7 128 -65 141 l-30 7
38 -35z"/>
<path d="M1910 1800 c0 -5 10 -16 22 -24 18 -13 54 -16 187 -16 206 0 207 17
1 22 -80 2 -160 9 -177 15 -18 6 -33 8 -33 3z"/>
<path d="M2586 1796 c11 -28 57 -36 210 -36 101 0 153 3 149 10 -4 6 -61 10
-138 10 -85 0 -149 5 -179 14 -37 12 -46 12 -42 2z"/>
<path d="M975 1790 c-3 -5 3 -10 14 -10 12 0 21 5 21 10 0 6 -6 10 -14 10 -8
0 -18 -4 -21 -10z"/>
<path d="M1240 1792 c0 -25 45 -32 201 -32 204 0 203 17 -1 23 -80 2 -157 7
-172 12 -18 5 -28 4 -28 -3z"/>
<path d="M1655 1790 c-3 -5 3 -10 14 -10 12 0 21 5 21 10 0 6 -6 10 -14 10 -8
0 -18 -4 -21 -10z"/>
<path d="M2335 1790 c-3 -5 1 -10 9 -10 9 0 16 5 16 10 0 6 -4 10 -9 10 -6 0
-13 -4 -16 -10z"/>
<path d="M3010 1790 c-12 -8 -11 -10 8 -10 12 0 22 5 22 10 0 13 -11 13 -30 0z"/>
<path d="M3270 1792 c0 -6 9 -16 19 -22 24 -12 201 -13 201 -1 0 5 -37 12 -82
14 -46 2 -95 8 -110 12 -18 5 -28 3 -28 -3z"/>
<path d="M226 1758 c-22 -31 -23 -170 0 -192 24 -25 37 -20 29 12 -3 15 -11
29 -16 30 -13 5 -11 136 3 150 6 6 9 14 6 17 -3 4 -13 -4 -22 -17z"/>
<path d="M785 1770 c-4 -6 20 -10 65 -10 45 0 69 4 65 10 -3 6 -33 10 -65 10
-32 0 -62 -4 -65 -10z"/>
<path d="M3671 1759 c-29 -31 -31 -155 -3 -189 11 -14 24 -20 31 -16 8 6 9 12
2 20 -6 7 -8 16 -4 20 4 3 -2 12 -12 20 -15 11 -17 22 -12 76 3 35 11 66 18
71 8 4 11 11 7 14 -3 4 -15 -4 -27 -16z"/>
<path d="M3760 1746 c0 -9 5 -16 10 -16 6 0 10 4 10 9 0 6 -4 13 -10 16 -5 3
-10 -1 -10 -9z"/>
<path d="M310 1740 c0 -5 5 -10 10 -10 6 0 10 5 10 10 0 6 -4 10 -10 10 -5 0
-10 -4 -10 -10z"/>
<path d="M1930 1729 c0 -5 -9 -9 -20 -9 -11 0 -20 -5 -20 -11 0 -12 -224 -8
-255 5 -19 9 -19 8 -2 -10 15 -16 36 -19 145 -22 131 -4 202 8 202 32 0 8 -11
16 -25 18 -14 3 -25 1 -25 -3z"/>
<path d="M3286 1729 c3 -5 -3 -9 -13 -9 -11 0 -24 -5 -30 -11 -12 -12 -226 -8
-258 5 -19 9 -19 8 -2 -10 15 -17 35 -19 160 -22 100 -2 149 1 166 10 30 16
28 31 -4 40 -14 3 -23 2 -19 -3z"/>
<path d="M1243 1723 c-18 -2 -33 -9 -33 -14 0 -12 -226 -8 -255 5 -19 9 -19 8
-2 -10 15 -17 35 -19 160 -22 140 -2 191 6 189 33 -1 12 -15 14 -59 8z"/>
<path d="M2600 1723 c-14 -3 -31 -10 -38 -15 -17 -15 -200 -10 -252 6 -24 8
-24 8 -7 -10 15 -17 37 -19 160 -22 101 -2 149 1 166 10 42 23 25 41 -29 31z"/>
<path d="M302 1578 c-14 -14 -17 -208 -3 -208 5 0 11 42 13 93 2 50 7 100 12
110 9 20 -4 23 -22 5z"/>
<path d="M3740 1564 c-11 -29 -13 -126 -3 -175 10 -52 21 -9 22 88 1 45 6 85
11 88 15 9 12 25 -5 25 -9 0 -20 -12 -25 -26z"/>
<path d="M373 1450 c0 -25 2 -35 4 -22 2 12 2 32 0 45 -2 12 -4 2 -4 -23z"/>
<path d="M3810 1435 c0 -8 5 -15 10 -15 6 0 10 7 10 15 0 8 -4 15 -10 15 -5 0
-10 -7 -10 -15z"/>
<path d="M395 1369 l35 -31 0 -94 c0 -52 -3 -94 -7 -94 -5 0 -16 -12 -27 -26
-18 -26 -18 -26 4 -22 14 2 24 11 26 22 1 10 8 22 14 26 8 5 12 45 13 109 2
97 1 104 -22 122 -13 10 -34 19 -47 19 -24 0 -23 -1 11 -31z"/>
<path d="M802 1389 c-102 -30 -190 -214 -180 -376 6 -83 24 -118 73 -139 69
-28 174 -7 233 48 17 16 22 18 22 7 0 -9 9 -25 20 -37 28 -30 86 -29 132 2
l35 23 21 -23 c15 -17 31 -24 59 -24 39 0 103 31 103 51 0 6 13 -3 29 -20 25
-27 36 -31 81 -31 53 0 99 18 137 52 l21 20 -8 -36 -8 -36 52 0 51 0 28 132
c15 72 32 137 38 145 17 19 47 16 54 -7 7 -22 44 -27 63 -8 15 15 15 61 0 76
-19 19 -63 14 -93 -10 l-27 -21 7 22 c6 21 4 22 -46 19 l-53 -3 -23 -110 c-25
-115 -41 -143 -93 -165 -15 -6 -43 -10 -61 -8 -32 3 -34 5 -34 42 0 37 2 40
38 50 49 14 94 58 108 106 22 73 -32 115 -114 90 -73 -22 -129 -103 -143 -207
-3 -29 -12 -57 -18 -61 -20 -16 -43 -20 -57 -12 -11 8 -10 29 10 129 23 113
26 121 48 121 14 0 23 6 23 15 0 9 -9 15 -21 15 -15 0 -19 4 -15 16 3 9 9 34
13 56 l6 41 -39 -6 c-21 -4 -45 -7 -51 -7 -7 0 -16 -19 -19 -41 -4 -23 -15
-49 -25 -57 -13 -11 -15 -19 -7 -31 11 -19 -24 -192 -46 -226 -17 -25 -47 -36
-67 -25 -10 7 -7 35 14 137 15 70 27 131 27 136 0 4 -22 7 -49 7 l-48 0 -23
-107 c-12 -60 -28 -117 -35 -129 -30 -47 -138 -71 -180 -40 -27 20 -33 140
-11 226 32 125 81 194 132 188 25 -3 29 -8 32 -36 2 -18 -2 -40 -8 -47 -16
-19 -4 -35 25 -35 28 0 45 26 45 67 0 41 -25 71 -68 83 -44 12 -65 12 -110 -1z
m728 -235 c0 -28 -8 -44 -34 -70 -43 -43 -68 -46 -56 -5 27 96 90 148 90 75z"/>
<path d="M2062 1389 c-102 -30 -190 -214 -180 -376 6 -83 24 -118 73 -139 67
-27 171 -7 229 44 18 16 18 16 11 -15 l-7 -33 50 0 c43 0 51 3 55 23 3 12 16
67 27 121 24 108 42 146 70 146 28 0 32 -31 15 -105 -31 -134 -13 -185 64
-185 28 0 49 8 70 26 l31 26 21 -26 c30 -38 99 -37 138 2 l28 28 16 -28 c13
-23 23 -28 55 -28 25 0 52 9 74 23 l34 24 17 -24 c21 -27 77 -31 117 -8 33 19
41 18 33 -1 -5 -13 3 -15 48 -12 l53 3 23 115 c25 119 47 165 79 165 23 0 24
-34 4 -148 -12 -69 -12 -82 1 -105 11 -21 24 -28 53 -30 58 -5 105 47 56 63
-25 8 -26 37 -4 134 17 75 14 110 -12 135 -20 21 -83 20 -114 -1 -22 -16 -23
-16 -17 0 5 15 -1 17 -46 17 l-53 0 -23 -112 c-27 -130 -36 -152 -65 -165 -29
-14 -46 -6 -46 22 0 22 35 202 46 238 5 16 0 18 -47 15 l-53 -3 -23 -109 c-25
-119 -39 -154 -66 -170 -14 -9 -21 -7 -31 7 -12 15 -9 38 14 147 l28 130 -54
0 c-33 0 -54 -4 -54 -11 0 -8 -5 -7 -15 1 -22 18 -80 14 -116 -7 -54 -32 -108
-141 -109 -220 0 -20 -33 -53 -52 -53 -23 0 -25 40 -7 125 19 93 18 117 -9
148 -19 21 -80 23 -110 1 -26 -18 -26 -16 -6 75 9 40 14 74 11 77 -3 3 -26 2
-51 -1 l-45 -7 -15 -67 c-8 -36 -24 -113 -36 -171 -12 -58 -28 -114 -35 -126
-30 -47 -138 -71 -180 -40 -27 20 -33 140 -11 226 32 125 81 194 132 188 25
-3 29 -8 32 -36 2 -18 -2 -40 -8 -47 -16 -19 -4 -35 25 -35 28 0 45 26 45 67
0 41 -25 71 -68 83 -44 12 -65 12 -110 -1z m725 -225 c3 -8 -5 -59 -18 -112
-20 -81 -28 -99 -49 -109 -35 -17 -50 0 -50 57 0 87 48 180 92 180 10 0 21 -7
25 -16z"/>
<path d="M3843 1369 l37 -31 0 -90 c0 -85 -2 -92 -26 -115 -14 -13 -24 -27
-21 -29 8 -9 48 6 42 15 -2 5 2 17 10 27 10 14 14 48 15 120 0 97 -1 102 -25
118 -13 9 -35 16 -47 16 -21 -1 -19 -4 15 -31z"/>
<path d="M1036 1354 c-37 -37 -1 -103 49 -90 14 4 31 17 37 31 23 52 -46 100
-86 59z"/>
<path d="M3016 1348 c-21 -30 -20 -44 4 -68 36 -36 90 -16 90 35 0 52 -65 74
-94 33z"/>
<path d="M226 1344 c-12 -11 -16 -36 -16 -90 0 -78 11 -114 34 -114 23 0 26
26 5 41 -15 11 -19 26 -19 77 0 35 5 72 10 83 13 23 7 25 -14 3z"/>
<path d="M3670 1338 c-40 -43 -21 -198 25 -198 19 0 11 39 -11 55 -14 10 -16
23 -11 74 3 34 11 68 17 76 19 23 3 17 -20 -7z"/>
<path d="M310 1330 c0 -5 5 -10 10 -10 6 0 10 5 10 10 0 6 -4 10 -10 10 -5 0
-10 -4 -10 -10z"/>
<path d="M3760 1330 c0 -5 5 -10 11 -10 5 0 7 5 4 10 -3 6 -8 10 -11 10 -2 0
-4 -4 -4 -10z"/>
<path d="M302 1168 c-15 -15 -17 -208 -2 -208 6 0 10 33 10 80 0 85 15 134 37
126 8 -3 11 -1 8 4 -8 14 -38 13 -53 -2z"/>
<path d="M3749 1164 c-16 -19 -24 -109 -14 -170 10 -70 25 -36 25 59 0 54 5
85 16 102 14 22 14 25 1 25 -8 0 -20 -7 -28 -16z"/>
<path d="M373 1040 c0 -25 2 -35 4 -22 2 12 2 32 0 45 -2 12 -4 2 -4 -23z"/>
<path d="M3810 1020 c0 -11 5 -20 10 -20 6 0 10 9 10 20 0 11 -4 20 -10 20 -5
0 -10 -9 -10 -20z"/>
<path d="M370 981 c0 -5 14 -19 30 -31 30 -21 30 -22 30 -114 0 -85 -2 -94
-25 -116 -28 -26 -25 -41 6 -33 12 3 18 11 15 19 -3 7 1 19 8 27 16 15 30 154
21 198 -5 23 -16 35 -41 45 -39 17 -44 17 -44 5z"/>
<path d="M3810 985 c0 -3 16 -19 35 -36 35 -31 35 -31 35 -117 0 -80 -2 -88
-27 -114 -14 -15 -24 -30 -21 -34 9 -8 49 16 43 26 -3 4 2 15 10 23 23 24 21
208 -2 229 -18 16 -73 33 -73 23z"/>
<path d="M220 921 c-17 -32 -13 -167 6 -185 24 -25 37 -20 29 11 -3 15 -11 31
-16 34 -13 8 -9 130 4 147 6 8 6 12 -1 12 -6 0 -16 -9 -22 -19z"/>
<path d="M3667 920 c-25 -30 -24 -149 2 -181 15 -18 22 -21 31 -13 8 8 8 14 1
18 -5 4 -8 13 -4 21 3 9 -1 15 -11 15 -13 0 -16 11 -16 53 0 28 7 64 14 80 17
32 8 36 -17 7z"/>
<path d="M310 910 c0 -5 5 -10 10 -10 6 0 10 5 10 10 0 6 -4 10 -10 10 -5 0
-10 -4 -10 -10z"/>
<path d="M3760 910 c0 -5 5 -10 11 -10 5 0 7 5 4 10 -3 6 -8 10 -11 10 -2 0
-4 -4 -4 -10z"/>
<path d="M312 754 c-20 -14 -22 -23 -22 -115 0 -59 4 -99 10 -99 6 0 10 36 10
89 0 50 4 92 9 95 7 5 23 46 17 46 -1 0 -12 -7 -24 -16z"/>
<path d="M3769 763 c-9 -2 -21 -15 -28 -29 -12 -27 -15 -123 -4 -175 10 -52
21 -9 22 84 1 54 6 85 17 102 9 14 15 24 13 24 -2 -1 -11 -3 -20 -6z"/>
<path d="M350 751 c0 -10 19 -25 25 -20 1 2 -3 10 -11 17 -8 7 -14 8 -14 3z"/>
<path d="M373 620 c0 -25 2 -35 4 -22 2 12 2 32 0 45 -2 12 -4 2 -4 -23z"/>
<path d="M3810 605 c0 -8 5 -15 10 -15 6 0 10 7 10 15 0 8 -4 15 -10 15 -5 0
-10 -7 -10 -15z"/>
<path d="M370 564 c0 -3 14 -17 30 -31 29 -24 30 -27 30 -116 0 -85 -2 -93
-27 -120 l-28 -29 24 4 c15 2 25 11 27 22 1 10 8 22 14 26 6 4 11 48 13 109 2
97 1 104 -22 122 -21 18 -61 26 -61 13z"/>
<path d="M3843 539 l37 -31 0 -90 c0 -85 -2 -92 -26 -115 -14 -13 -24 -27 -21
-29 8 -9 48 6 42 15 -2 5 2 17 10 27 10 14 14 48 15 121 l0 102 -30 16 c-16 8
-37 15 -47 15 -13 -1 -8 -9 20 -31z"/>
<path d="M945 542 c-33 -11 -62 -35 -69 -59 -10 -32 8 -29 56 10 l40 32 152 2
c83 1 153 3 156 4 3 1 -13 5 -35 10 -47 9 -271 10 -300 1z"/>
<path d="M1618 543 c-43 -7 -93 -83 -55 -83 8 0 24 11 37 25 34 37 83 46 224
43 124 -3 161 4 89 16 -41 6 -250 6 -295 -1z"/>
<path d="M2296 540 c-35 -11 -62 -35 -69 -61 -7 -27 8 -24 60 14 45 32 46 32
177 35 129 3 132 3 188 -27 34 -17 60 -26 64 -20 10 17 -14 36 -47 37 -18 0
-36 6 -40 13 -9 16 -289 23 -333 9z"/>
<path d="M2980 543 c-30 -6 -66 -37 -73 -64 -7 -26 9 -24 44 6 16 13 46 29 67
35 50 14 244 13 279 -2 15 -6 31 -12 35 -12 4 -1 13 -7 20 -13 6 -7 17 -13 24
-13 7 0 15 -6 18 -12 2 -7 4 -4 3 7 -4 32 -14 42 -48 43 -18 0 -36 7 -40 14
-6 9 -47 13 -156 15 -81 1 -159 -1 -173 -4z"/>
<path d="M226 514 c-24 -24 -22 -164 3 -195 l18 -23 13 23 c8 15 8 21 1 17 -6
-4 -11 0 -11 8 0 9 -5 16 -11 16 -13 0 -11 126 3 153 11 21 4 22 -16 1z"/>
<path d="M1330 522 c0 -8 -9 -10 -27 -6 -24 5 -23 2 12 -19 33 -22 41 -23 43
-10 2 8 -3 23 -12 31 -11 11 -16 12 -16 4z"/>
<path d="M3670 508 c-35 -38 -24 -187 16 -202 16 -6 28 10 14 19 -6 4 -8 11
-4 16 3 6 -2 16 -12 23 -14 11 -16 23 -11 75 3 34 11 68 17 76 19 23 3 17 -20
-7z"/>
<path d="M1960 515 c0 -2 18 -14 41 -25 l41 -21 -4 23 c-2 18 -10 23 -40 25
-21 2 -38 1 -38 -2z"/>
<path d="M310 500 c0 -5 5 -10 11 -10 5 0 7 5 4 10 -3 6 -8 10 -11 10 -2 0 -4
-4 -4 -10z"/>
<path d="M3760 500 c0 -5 5 -10 11 -10 5 0 7 5 4 10 -3 6 -8 10 -11 10 -2 0
-4 -4 -4 -10z"/>
<path d="M803 463 c9 -2 25 -2 35 0 9 3 1 5 -18 5 -19 0 -27 -2 -17 -5z"/>
<path d="M1433 463 c20 -2 54 -2 75 0 20 2 3 4 -38 4 -41 0 -58 -2 -37 -4z"/>
<path d="M1960 459 c0 -5 5 -7 10 -4 6 3 10 8 10 11 0 2 -4 4 -10 4 -5 0 -10
-5 -10 -11z"/>
<path d="M2103 463 c20 -2 54 -2 75 0 20 2 3 4 -38 4 -41 0 -58 -2 -37 -4z"/>
<path d="M2783 463 c20 -2 54 -2 75 0 20 2 3 4 -38 4 -41 0 -58 -2 -37 -4z"/>
<path d="M3315 460 c3 -5 8 -10 11 -10 2 0 4 5 4 10 0 6 -5 10 -11 10 -5 0 -7
-4 -4 -10z"/>
<path d="M3438 463 c12 -2 30 -2 40 0 9 3 -1 5 -23 4 -22 0 -30 -2 -17 -4z"/>
<path d="M1910 435 c0 -16 13 -31 37 -44 24 -12 289 -14 338 -1 19 5 -21 8
-106 9 -143 1 -249 15 -261 34 -4 7 -8 8 -8 2z"/>
<path d="M2586 415 c10 -25 72 -35 210 -34 193 2 237 16 54 18 -80 1 -173 8
-207 15 -45 10 -60 10 -57 1z"/>
<path d="M3270 415 c0 -7 14 -18 31 -24 40 -14 189 -15 189 -1 0 6 -24 10 -52
10 -29 0 -79 6 -110 14 -47 11 -58 11 -58 1z"/>
<path d="M980 410 c0 -5 4 -10 9 -10 6 0 13 5 16 10 3 6 -1 10 -9 10 -9 0 -16
-4 -16 -10z"/>
<path d="M1240 413 c0 -23 56 -33 188 -32 218 0 248 15 47 22 -93 3 -185 9
-202 12 -19 4 -33 3 -33 -2z"/>
<path d="M1650 410 c0 -5 6 -10 14 -10 8 0 18 5 21 10 3 6 -3 10 -14 10 -12 0
-21 -4 -21 -10z"/>
<path d="M2330 410 c0 -13 11 -13 30 0 12 8 11 10 -7 10 -13 0 -23 -4 -23 -10z"/>
<path d="M3010 410 c0 -5 4 -10 9 -10 6 0 13 5 16 10 3 6 -1 10 -9 10 -9 0
-16 -4 -16 -10z"/>
<path d="M785 390 c7 -12 109 -12 145 0 17 5 -4 8 -63 9 -57 1 -86 -3 -82 -9z"/>
<path d="M1930 349 c0 -5 -9 -9 -19 -9 -11 0 -23 -5 -27 -11 -10 -16 -234 -5
-244 11 -5 8 -10 9 -14 2 -4 -6 9 -18 28 -27 45 -22 283 -19 309 4 23 19 21
28 -8 33 -14 3 -25 1 -25 -3z"/>
<path d="M3851 344 c0 -11 3 -14 6 -6 3 7 2 16 -1 19 -3 4 -6 -2 -5 -13z"/>
<path d="M300 331 c-13 -25 -13 -121 0 -121 6 0 10 18 10 40 0 49 19 93 37 86
8 -3 11 -1 8 4 -10 17 -44 11 -55 -9z"/>
<path d="M942 338 c3 -7 14 -14 26 -16 12 -2 22 -8 22 -13 0 -7 51 -9 140 -7
131 3 141 4 162 27 l23 23 -50 -7 c-27 -4 -56 -12 -63 -17 -16 -14 -235 -3
-240 11 -2 6 -8 11 -14 11 -5 0 -8 -6 -6 -12z"/>
<path d="M2300 341 c0 -27 59 -41 175 -41 117 0 185 15 185 41 0 14 -77 4 -97
-13 -18 -14 -229 -4 -249 13 -10 8 -14 8 -14 0z"/>
<path d="M3280 343 c-8 -2 -25 -9 -37 -15 -23 -11 -213 -6 -245 7 -11 4 -18 3
-18 -4 0 -6 9 -11 19 -11 11 0 23 -4 26 -10 11 -18 242 -12 281 6 19 9 34 20
34 25 0 9 -35 11 -60 2z"/>
<path d="M3749 334 c-17 -21 -18 -116 -1 -121 8 -3 12 9 12 44 1 52 21 90 41
77 8 -4 10 -3 5 4 -10 17 -41 15 -57 -4z"/>
<path d="M372 230 c0 -14 2 -19 5 -12 2 6 2 18 0 25 -3 6 -5 1 -5 -13z"/>
</g>
</svg>
